<svg xmlns="http://www.w3.org/2000/svg" xmlns:xlink="http://www.w3.org/1999/xlink" width="500" zoomAndPan="magnify" viewBox="0 0 375 374.999991" height="500" preserveAspectRatio="xMidYMid meet" version="1.0"><defs><clipPath id="5c5eaa875b"><path d="M 3.222656 3.222656 L 371.472656 3.222656 L 371.472656 371.472656 L 3.222656 371.472656 Z M 3.222656 3.222656 " clip-rule="nonzero"/></clipPath></defs><g clip-path="url(#5c5eaa875b)"><path fill="#ff914d" d="M 221.871094 273.65625 L 152.824219 273.65625 L 187.347656 216.117188 Z M 187.347656 308.179688 C 155.136719 308.179688 152.941406 288.871094 152.824219 285.003906 L 141.316406 285.164062 L 129.808594 285.164062 C 129.808594 301.089844 141.835938 331.195312 187.347656 331.195312 C 232.863281 331.195312 244.886719 301.089844 244.886719 285.164062 L 221.871094 285.164062 C 221.871094 286.109375 221.480469 308.179688 187.347656 308.179688 Z M 371.472656 227.625 L 371.472656 273.585938 C 371.242188 293.554688 360.367188 313.542969 336.960938 318.480469 L 336.960938 336.949219 C 336.960938 350.828125 327.765625 371.472656 302.4375 371.472656 L 72.269531 371.472656 C 58.390625 371.472656 37.746094 362.277344 37.746094 336.949219 L 37.746094 318.492188 C 14.339844 313.554688 3.464844 293.589844 3.222656 273.726562 L 3.222656 227.625 C 3.222656 201.527344 19.230469 187.359375 37.746094 183.101562 L 37.746094 152.824219 C 37.746094 138.945312 46.941406 118.300781 72.269531 118.300781 L 175.839844 118.300781 L 175.839844 70.152344 C 162.480469 65.386719 152.824219 52.730469 152.824219 37.746094 C 152.824219 18.710938 168.3125 3.222656 187.347656 3.222656 C 206.382812 3.222656 221.871094 18.710938 221.871094 37.746094 C 221.871094 52.730469 212.214844 65.386719 198.855469 70.152344 L 198.855469 118.300781 L 302.4375 118.300781 C 316.316406 118.300781 336.960938 127.496094 336.960938 152.824219 L 336.960938 183.101562 C 355.476562 187.359375 371.472656 201.527344 371.472656 227.625 Z M 175.839844 37.746094 C 175.839844 44.085938 181.007812 49.253906 187.347656 49.253906 C 193.6875 49.253906 198.855469 44.085938 198.855469 37.746094 C 198.855469 31.40625 193.6875 26.238281 187.347656 26.238281 C 181.007812 26.238281 175.839844 31.40625 175.839844 37.746094 Z M 60.761719 181.433594 L 60.761719 198.855469 L 75.652344 198.855469 C 77.941406 193.207031 81.328125 188.003906 85.769531 183.5625 C 103.15625 166.171875 133.480469 166.171875 150.855469 183.5625 C 151.871094 184.574219 152.652344 185.761719 153.5625 186.839844 C 161.90625 180.085938 173.804688 175.839844 187.347656 175.839844 C 200.894531 175.839844 212.792969 180.085938 221.148438 186.851562 C 222.054688 185.761719 222.839844 184.585938 223.851562 183.5625 C 232.539062 174.886719 244.105469 170.085938 256.394531 170.085938 C 268.683594 170.085938 280.25 174.886719 288.9375 183.574219 C 293.382812 188.003906 296.765625 193.207031 299.054688 198.855469 L 313.945312 198.855469 L 313.945312 152.824219 C 313.945312 143.5625 307.617188 141.453125 302.300781 141.316406 L 72.269531 141.316406 C 63.007812 141.316406 60.898438 147.644531 60.761719 152.960938 Z M 233.378906 216.117188 C 233.378906 222.261719 235.773438 228.039062 240.121094 232.390625 C 248.824219 241.089844 263.96875 241.089844 272.667969 232.390625 C 277.015625 228.039062 279.410156 222.261719 279.410156 216.117188 C 279.410156 209.972656 277.015625 204.195312 272.667969 199.84375 C 268.316406 195.496094 262.539062 193.101562 256.394531 193.101562 C 250.25 193.101562 244.472656 195.496094 240.121094 199.84375 C 235.773438 204.195312 233.378906 209.972656 233.378906 216.117188 Z M 95.285156 216.117188 C 95.285156 222.261719 97.679688 228.039062 102.027344 232.390625 C 110.730469 241.089844 125.875 241.089844 134.574219 232.390625 C 138.921875 228.039062 141.316406 222.261719 141.316406 216.117188 C 141.316406 209.972656 138.921875 204.195312 134.574219 199.84375 C 130.222656 195.496094 124.445312 193.101562 118.300781 193.101562 C 112.15625 193.101562 106.378906 195.496094 102.027344 199.84375 C 97.679688 204.195312 95.285156 209.972656 95.285156 216.117188 Z M 37.746094 294.460938 L 37.746094 206.96875 C 31.601562 209.753906 26.238281 215.632812 26.238281 227.625 L 26.238281 273.585938 C 26.320312 280.089844 28.148438 290.066406 37.746094 294.460938 Z M 313.945312 319.6875 L 313.945312 221.871094 L 301.863281 221.871094 C 300.597656 231.976562 296.257812 241.355469 288.9375 248.660156 C 280.25 257.363281 268.683594 262.148438 256.394531 262.148438 C 244.105469 262.148438 232.539062 257.363281 223.851562 248.660156 C 215.152344 239.972656 210.363281 228.40625 210.363281 216.117188 C 210.363281 214.171875 210.6875 212.285156 210.925781 210.375 L 210.363281 210.375 C 210.363281 205.679688 201.398438 198.855469 187.347656 198.855469 C 173.296875 198.855469 164.332031 205.679688 164.332031 210.375 L 163.769531 210.375 C 164.011719 212.285156 164.332031 214.171875 164.332031 216.117188 C 164.332031 228.40625 159.535156 239.972656 150.84375 248.660156 C 142.15625 257.363281 130.589844 262.148438 118.300781 262.148438 C 106.011719 262.148438 94.445312 257.363281 85.757812 248.660156 C 78.449219 241.355469 74.101562 231.976562 72.832031 221.871094 L 60.761719 221.871094 L 60.761719 336.949219 C 60.761719 346.226562 67.089844 348.320312 72.40625 348.457031 L 302.449219 348.457031 C 311.722656 348.457031 313.820312 342.128906 313.957031 336.8125 L 313.957031 319.6875 Z M 348.457031 227.625 C 348.457031 215.632812 343.105469 209.765625 336.960938 206.96875 L 336.960938 294.460938 C 346.558594 290.054688 348.375 280.054688 348.457031 273.460938 Z M 348.457031 227.625 " fill-opacity="1" fill-rule="nonzero"/></g></svg>