<svg xmlns="http://www.w3.org/2000/svg" xmlns:xlink="http://www.w3.org/1999/xlink" width="500" zoomAndPan="magnify" viewBox="0 0 375 374.999991" height="500" preserveAspectRatio="xMidYMid meet" version="1.0"><defs><clipPath id="a220f9617f"><path d="M 3.945312 3.945312 L 370.695312 3.945312 L 370.695312 370.695312 L 3.945312 370.695312 Z M 3.945312 3.945312 " clip-rule="nonzero"/></clipPath></defs><g clip-path="url(#a220f9617f)"><path fill="#ff3131" d="M 164.398438 215.972656 C 164.398438 203.730469 159.617188 192.210938 150.964844 183.558594 C 133.648438 166.230469 103.449219 166.242188 86.140625 183.558594 C 77.488281 192.210938 72.710938 203.730469 72.710938 215.972656 C 72.710938 228.210938 77.488281 239.730469 86.140625 248.382812 C 94.792969 257.046875 106.3125 261.816406 118.554688 261.816406 C 130.792969 261.816406 142.3125 257.046875 150.964844 248.382812 C 159.617188 239.730469 164.398438 228.210938 164.398438 215.972656 Z M 134.757812 232.175781 C 126.09375 240.839844 111.011719 240.839844 102.347656 232.175781 C 98.015625 227.84375 95.632812 222.089844 95.632812 215.972656 C 95.632812 209.851562 98.015625 204.097656 102.347656 199.765625 C 106.679688 195.433594 112.433594 193.050781 118.554688 193.050781 C 124.671875 193.050781 130.425781 195.433594 134.757812 199.765625 C 139.089844 204.097656 141.476562 209.851562 141.476562 215.972656 C 141.476562 222.089844 139.089844 227.84375 134.757812 232.175781 Z M 152.9375 273.277344 L 187.320312 215.972656 L 221.703125 273.277344 Z M 256.085938 170.128906 C 243.84375 170.128906 232.324219 174.90625 223.671875 183.546875 C 215.007812 192.210938 210.242188 203.730469 210.242188 215.972656 C 210.242188 228.210938 215.007812 239.730469 223.671875 248.382812 C 232.324219 257.046875 243.84375 261.816406 256.085938 261.816406 C 268.324219 261.816406 279.84375 257.046875 288.496094 248.382812 C 297.160156 239.730469 301.929688 228.210938 301.929688 215.972656 C 301.929688 203.730469 297.160156 192.210938 288.496094 183.558594 C 279.84375 174.90625 268.324219 170.128906 256.085938 170.128906 Z M 272.289062 232.175781 C 263.625 240.839844 248.542969 240.839844 239.878906 232.175781 C 235.546875 227.84375 233.164062 222.089844 233.164062 215.972656 C 233.164062 209.851562 235.546875 204.097656 239.878906 199.765625 C 244.210938 195.433594 249.964844 193.050781 256.085938 193.050781 C 262.203125 193.050781 267.957031 195.433594 272.289062 199.765625 C 276.621094 204.097656 279.007812 209.851562 279.007812 215.972656 C 279.007812 222.089844 276.621094 227.84375 272.289062 232.175781 Z M 336.320312 183.089844 L 336.320312 152.9375 C 336.320312 127.710938 315.761719 118.554688 301.9375 118.554688 L 198.78125 118.554688 L 198.78125 70.601562 C 212.085938 65.855469 221.703125 53.25 221.703125 38.328125 C 221.703125 19.371094 206.273438 3.945312 187.320312 3.945312 C 168.363281 3.945312 152.9375 19.371094 152.9375 38.328125 C 152.9375 53.25 162.550781 65.855469 175.859375 70.601562 L 175.859375 118.554688 L 72.710938 118.554688 C 47.484375 118.554688 38.328125 139.113281 38.328125 152.9375 L 38.328125 183.089844 C 19.886719 187.328125 3.945312 201.425781 3.945312 227.433594 L 3.945312 273.34375 C 4.171875 293.125 15.003906 313.011719 38.328125 317.925781 L 38.328125 336.3125 C 38.328125 361.535156 58.886719 370.695312 72.710938 370.695312 L 301.9375 370.695312 C 327.164062 370.695312 336.320312 350.132812 336.320312 336.3125 L 336.320312 317.925781 C 359.632812 313 370.464844 293.101562 370.695312 273.21875 L 370.695312 227.433594 C 370.695312 201.4375 354.761719 187.328125 336.320312 183.089844 Z M 187.320312 26.867188 C 193.632812 26.867188 198.78125 32.011719 198.78125 38.328125 C 198.78125 44.640625 193.632812 49.789062 187.320312 49.789062 C 181.003906 49.789062 175.859375 44.640625 175.859375 38.328125 C 175.859375 32.011719 181.003906 26.867188 187.320312 26.867188 Z M 26.867188 273.207031 L 26.867188 227.433594 C 26.867188 215.488281 32.195312 209.632812 38.328125 206.859375 L 38.328125 293.996094 C 28.769531 289.617188 26.945312 279.683594 26.867188 273.207031 Z M 313.398438 336.171875 C 313.261719 341.46875 311.175781 347.773438 301.9375 347.773438 L 72.835938 347.773438 C 67.550781 347.632812 61.25 345.546875 61.25 336.3125 L 61.25 153.074219 C 61.375 147.777344 63.472656 141.476562 72.710938 141.476562 L 301.8125 141.476562 C 307.109375 141.613281 313.410156 143.710938 313.410156 152.9375 L 313.410156 336.171875 Z M 347.773438 273.070312 C 347.691406 279.636719 345.878906 289.597656 336.320312 293.984375 L 336.320312 206.847656 C 342.441406 209.644531 347.773438 215.488281 347.773438 227.433594 Z M 244.625 307.660156 C 244.625 323.484375 218.960938 336.3125 187.320312 336.3125 C 155.675781 336.3125 130.015625 323.484375 130.015625 307.660156 C 130.015625 291.832031 155.675781 279.007812 187.320312 279.007812 C 218.960938 279.007812 244.625 291.832031 244.625 307.660156 Z M 244.625 307.660156 " fill-opacity="1" fill-rule="nonzero"/></g></svg>