<svg xmlns="http://www.w3.org/2000/svg" xmlns:xlink="http://www.w3.org/1999/xlink" width="500" zoomAndPan="magnify" viewBox="0 0 375 374.999991" height="500" preserveAspectRatio="xMidYMid meet" version="1.0"><defs><linearGradient x1="0" gradientTransform="matrix(0.75, 0, 0, 0.75, 0.0000045, 0)" y1="0" x2="499.999979" gradientUnits="userSpaceOnUse" y2="0" id="75946066e7"><stop stop-opacity="1" stop-color="rgb(100%, 19.198608%, 19.198608%)" offset="0"/><stop stop-opacity="1" stop-color="rgb(100%, 19.345093%, 19.241333%)" offset="0.0078125"/><stop stop-opacity="1" stop-color="rgb(100%, 19.639587%, 19.328308%)" offset="0.015625"/><stop stop-opacity="1" stop-color="rgb(100%, 19.934082%, 19.413757%)" offset="0.0234375"/><stop stop-opacity="1" stop-color="rgb(100%, 20.230103%, 19.499207%)" offset="0.03125"/><stop stop-opacity="1" stop-color="rgb(100%, 20.524597%, 19.586182%)" offset="0.0390625"/><stop stop-opacity="1" stop-color="rgb(100%, 20.819092%, 19.671631%)" offset="0.046875"/><stop stop-opacity="1" stop-color="rgb(100%, 21.113586%, 19.75708%)" offset="0.0546875"/><stop stop-opacity="1" stop-color="rgb(100%, 21.408081%, 19.844055%)" offset="0.0625"/><stop stop-opacity="1" stop-color="rgb(100%, 21.702576%, 19.929504%)" offset="0.0703125"/><stop stop-opacity="1" stop-color="rgb(100%, 21.99707%, 20.014954%)" offset="0.078125"/><stop stop-opacity="1" stop-color="rgb(100%, 22.291565%, 20.101929%)" offset="0.0859375"/><stop stop-opacity="1" stop-color="rgb(100%, 22.58606%, 20.187378%)" offset="0.09375"/><stop stop-opacity="1" stop-color="rgb(100%, 22.880554%, 20.272827%)" offset="0.101562"/><stop stop-opacity="1" stop-color="rgb(100%, 23.175049%, 20.359802%)" offset="0.109375"/><stop stop-opacity="1" stop-color="rgb(100%, 23.469543%, 20.445251%)" offset="0.117188"/><stop stop-opacity="1" stop-color="rgb(100%, 23.764038%, 20.530701%)" offset="0.125"/><stop stop-opacity="1" stop-color="rgb(100%, 24.058533%, 20.617676%)" offset="0.132812"/><stop stop-opacity="1" stop-color="rgb(100%, 24.353027%, 20.703125%)" offset="0.140625"/><stop stop-opacity="1" stop-color="rgb(100%, 24.647522%, 20.788574%)" offset="0.148437"/><stop stop-opacity="1" stop-color="rgb(100%, 24.942017%, 20.874023%)" offset="0.15625"/><stop stop-opacity="1" stop-color="rgb(100%, 25.236511%, 20.960999%)" offset="0.164062"/><stop stop-opacity="1" stop-color="rgb(100%, 25.531006%, 21.046448%)" offset="0.171875"/><stop stop-opacity="1" stop-color="rgb(100%, 25.8255%, 21.131897%)" offset="0.179687"/><stop stop-opacity="1" stop-color="rgb(100%, 26.119995%, 21.218872%)" offset="0.1875"/><stop stop-opacity="1" stop-color="rgb(100%, 26.41449%, 21.304321%)" offset="0.195312"/><stop stop-opacity="1" stop-color="rgb(100%, 26.708984%, 21.389771%)" offset="0.203125"/><stop stop-opacity="1" stop-color="rgb(100%, 27.003479%, 21.476746%)" offset="0.210938"/><stop stop-opacity="1" stop-color="rgb(100%, 27.297974%, 21.562195%)" offset="0.21875"/><stop stop-opacity="1" stop-color="rgb(100%, 27.592468%, 21.647644%)" offset="0.226562"/><stop stop-opacity="1" stop-color="rgb(100%, 27.886963%, 21.734619%)" offset="0.234375"/><stop stop-opacity="1" stop-color="rgb(100%, 28.181458%, 21.820068%)" offset="0.242188"/><stop stop-opacity="1" stop-color="rgb(100%, 28.475952%, 21.905518%)" offset="0.25"/><stop stop-opacity="1" stop-color="rgb(100%, 28.770447%, 21.992493%)" offset="0.257812"/><stop stop-opacity="1" stop-color="rgb(100%, 29.064941%, 22.077942%)" offset="0.265625"/><stop stop-opacity="1" stop-color="rgb(100%, 29.359436%, 22.163391%)" offset="0.273437"/><stop stop-opacity="1" stop-color="rgb(100%, 29.653931%, 22.250366%)" offset="0.28125"/><stop stop-opacity="1" stop-color="rgb(100%, 29.948425%, 22.335815%)" offset="0.289062"/><stop stop-opacity="1" stop-color="rgb(100%, 30.24292%, 22.421265%)" offset="0.296875"/><stop stop-opacity="1" stop-color="rgb(100%, 30.537415%, 22.50824%)" offset="0.304687"/><stop stop-opacity="1" stop-color="rgb(100%, 30.831909%, 22.593689%)" offset="0.3125"/><stop stop-opacity="1" stop-color="rgb(100%, 31.126404%, 22.679138%)" offset="0.320312"/><stop stop-opacity="1" stop-color="rgb(100%, 31.420898%, 22.766113%)" offset="0.328125"/><stop stop-opacity="1" stop-color="rgb(100%, 31.715393%, 22.851562%)" offset="0.335937"/><stop stop-opacity="1" stop-color="rgb(100%, 32.009888%, 22.937012%)" offset="0.34375"/><stop stop-opacity="1" stop-color="rgb(100%, 32.304382%, 23.022461%)" offset="0.351562"/><stop stop-opacity="1" stop-color="rgb(100%, 32.600403%, 23.109436%)" offset="0.359375"/><stop stop-opacity="1" stop-color="rgb(100%, 32.894897%, 23.194885%)" offset="0.367187"/><stop stop-opacity="1" stop-color="rgb(100%, 33.189392%, 23.280334%)" offset="0.375"/><stop stop-opacity="1" stop-color="rgb(100%, 33.483887%, 23.36731%)" offset="0.382812"/><stop stop-opacity="1" stop-color="rgb(100%, 33.778381%, 23.452759%)" offset="0.390625"/><stop stop-opacity="1" stop-color="rgb(100%, 34.072876%, 23.538208%)" offset="0.398438"/><stop stop-opacity="1" stop-color="rgb(100%, 34.367371%, 23.625183%)" offset="0.40625"/><stop stop-opacity="1" stop-color="rgb(100%, 34.661865%, 23.710632%)" offset="0.414062"/><stop stop-opacity="1" stop-color="rgb(100%, 34.95636%, 23.796082%)" offset="0.421875"/><stop stop-opacity="1" stop-color="rgb(100%, 35.250854%, 23.883057%)" offset="0.429688"/><stop stop-opacity="1" stop-color="rgb(100%, 35.545349%, 23.968506%)" offset="0.4375"/><stop stop-opacity="1" stop-color="rgb(100%, 35.839844%, 24.053955%)" offset="0.445312"/><stop stop-opacity="1" stop-color="rgb(100%, 36.134338%, 24.14093%)" offset="0.453125"/><stop stop-opacity="1" stop-color="rgb(100%, 36.428833%, 24.226379%)" offset="0.460938"/><stop stop-opacity="1" stop-color="rgb(100%, 36.723328%, 24.311829%)" offset="0.46875"/><stop stop-opacity="1" stop-color="rgb(100%, 37.017822%, 24.398804%)" offset="0.476562"/><stop stop-opacity="1" stop-color="rgb(100%, 37.312317%, 24.484253%)" offset="0.484375"/><stop stop-opacity="1" stop-color="rgb(100%, 37.606812%, 24.569702%)" offset="0.492188"/><stop stop-opacity="1" stop-color="rgb(100%, 37.901306%, 24.656677%)" offset="0.5"/><stop stop-opacity="1" stop-color="rgb(100%, 38.195801%, 24.742126%)" offset="0.507812"/><stop stop-opacity="1" stop-color="rgb(100%, 38.490295%, 24.827576%)" offset="0.515625"/><stop stop-opacity="1" stop-color="rgb(100%, 38.78479%, 24.914551%)" offset="0.523437"/><stop stop-opacity="1" stop-color="rgb(100%, 39.079285%, 25%)" offset="0.53125"/><stop stop-opacity="1" stop-color="rgb(100%, 39.373779%, 25.085449%)" offset="0.539062"/><stop stop-opacity="1" stop-color="rgb(100%, 39.668274%, 25.170898%)" offset="0.546875"/><stop stop-opacity="1" stop-color="rgb(100%, 39.962769%, 25.257874%)" offset="0.554687"/><stop stop-opacity="1" stop-color="rgb(100%, 40.257263%, 25.343323%)" offset="0.5625"/><stop stop-opacity="1" stop-color="rgb(100%, 40.551758%, 25.428772%)" offset="0.570312"/><stop stop-opacity="1" stop-color="rgb(100%, 40.846252%, 25.515747%)" offset="0.578125"/><stop stop-opacity="1" stop-color="rgb(100%, 41.140747%, 25.601196%)" offset="0.585937"/><stop stop-opacity="1" stop-color="rgb(100%, 41.435242%, 25.686646%)" offset="0.59375"/><stop stop-opacity="1" stop-color="rgb(100%, 41.729736%, 25.773621%)" offset="0.601562"/><stop stop-opacity="1" stop-color="rgb(100%, 42.024231%, 25.85907%)" offset="0.609375"/><stop stop-opacity="1" stop-color="rgb(100%, 42.318726%, 25.944519%)" offset="0.617187"/><stop stop-opacity="1" stop-color="rgb(100%, 42.61322%, 26.031494%)" offset="0.625"/><stop stop-opacity="1" stop-color="rgb(100%, 42.907715%, 26.116943%)" offset="0.632812"/><stop stop-opacity="1" stop-color="rgb(100%, 43.202209%, 26.202393%)" offset="0.640625"/><stop stop-opacity="1" stop-color="rgb(100%, 43.496704%, 26.289368%)" offset="0.648437"/><stop stop-opacity="1" stop-color="rgb(100%, 43.791199%, 26.374817%)" offset="0.65625"/><stop stop-opacity="1" stop-color="rgb(100%, 44.085693%, 26.460266%)" offset="0.664062"/><stop stop-opacity="1" stop-color="rgb(100%, 44.380188%, 26.547241%)" offset="0.671875"/><stop stop-opacity="1" stop-color="rgb(100%, 44.674683%, 26.63269%)" offset="0.679687"/><stop stop-opacity="1" stop-color="rgb(100%, 44.970703%, 26.71814%)" offset="0.6875"/><stop stop-opacity="1" stop-color="rgb(100%, 45.265198%, 26.805115%)" offset="0.695312"/><stop stop-opacity="1" stop-color="rgb(100%, 45.559692%, 26.890564%)" offset="0.703125"/><stop stop-opacity="1" stop-color="rgb(100%, 45.854187%, 26.976013%)" offset="0.710937"/><stop stop-opacity="1" stop-color="rgb(100%, 46.148682%, 27.062988%)" offset="0.71875"/><stop stop-opacity="1" stop-color="rgb(100%, 46.443176%, 27.148438%)" offset="0.726562"/><stop stop-opacity="1" stop-color="rgb(100%, 46.737671%, 27.233887%)" offset="0.734375"/><stop stop-opacity="1" stop-color="rgb(100%, 47.032166%, 27.319336%)" offset="0.742187"/><stop stop-opacity="1" stop-color="rgb(100%, 47.32666%, 27.406311%)" offset="0.75"/><stop stop-opacity="1" stop-color="rgb(100%, 47.621155%, 27.49176%)" offset="0.757812"/><stop stop-opacity="1" stop-color="rgb(100%, 47.915649%, 27.577209%)" offset="0.765625"/><stop stop-opacity="1" stop-color="rgb(100%, 48.210144%, 27.664185%)" offset="0.773438"/><stop stop-opacity="1" stop-color="rgb(100%, 48.504639%, 27.749634%)" offset="0.78125"/><stop stop-opacity="1" stop-color="rgb(100%, 48.799133%, 27.835083%)" offset="0.789062"/><stop stop-opacity="1" stop-color="rgb(100%, 49.093628%, 27.922058%)" offset="0.796875"/><stop stop-opacity="1" stop-color="rgb(100%, 49.388123%, 28.007507%)" offset="0.804688"/><stop stop-opacity="1" stop-color="rgb(100%, 49.682617%, 28.092957%)" offset="0.8125"/><stop stop-opacity="1" stop-color="rgb(100%, 49.977112%, 28.179932%)" offset="0.820312"/><stop stop-opacity="1" stop-color="rgb(100%, 50.271606%, 28.265381%)" offset="0.828125"/><stop stop-opacity="1" stop-color="rgb(100%, 50.566101%, 28.35083%)" offset="0.835938"/><stop stop-opacity="1" stop-color="rgb(100%, 50.860596%, 28.437805%)" offset="0.84375"/><stop stop-opacity="1" stop-color="rgb(100%, 51.15509%, 28.523254%)" offset="0.851562"/><stop stop-opacity="1" stop-color="rgb(100%, 51.449585%, 28.608704%)" offset="0.859375"/><stop stop-opacity="1" stop-color="rgb(100%, 51.74408%, 28.695679%)" offset="0.867188"/><stop stop-opacity="1" stop-color="rgb(100%, 52.038574%, 28.781128%)" offset="0.875"/><stop stop-opacity="1" stop-color="rgb(100%, 52.333069%, 28.866577%)" offset="0.882812"/><stop stop-opacity="1" stop-color="rgb(100%, 52.627563%, 28.953552%)" offset="0.890625"/><stop stop-opacity="1" stop-color="rgb(100%, 52.922058%, 29.039001%)" offset="0.898438"/><stop stop-opacity="1" stop-color="rgb(100%, 53.216553%, 29.124451%)" offset="0.90625"/><stop stop-opacity="1" stop-color="rgb(100%, 53.511047%, 29.211426%)" offset="0.914062"/><stop stop-opacity="1" stop-color="rgb(100%, 53.805542%, 29.296875%)" offset="0.921875"/><stop stop-opacity="1" stop-color="rgb(100%, 54.100037%, 29.382324%)" offset="0.929688"/><stop stop-opacity="1" stop-color="rgb(100%, 54.394531%, 29.467773%)" offset="0.9375"/><stop stop-opacity="1" stop-color="rgb(100%, 54.689026%, 29.554749%)" offset="0.945312"/><stop stop-opacity="1" stop-color="rgb(100%, 54.983521%, 29.640198%)" offset="0.953125"/><stop stop-opacity="1" stop-color="rgb(100%, 55.278015%, 29.725647%)" offset="0.960938"/><stop stop-opacity="1" stop-color="rgb(100%, 55.57251%, 29.812622%)" offset="0.96875"/><stop stop-opacity="1" stop-color="rgb(100%, 55.867004%, 29.898071%)" offset="0.976562"/><stop stop-opacity="1" stop-color="rgb(100%, 56.161499%, 29.983521%)" offset="0.984375"/><stop stop-opacity="1" stop-color="rgb(100%, 56.455994%, 30.070496%)" offset="0.992188"/><stop stop-opacity="1" stop-color="rgb(100%, 56.750488%, 30.155945%)" offset="1"/></linearGradient><clipPath id="d2e4fc57f0"><path d="M 200.761719 69.828125 L 350.761719 69.828125 L 350.761719 219.828125 L 200.761719 219.828125 Z M 200.761719 69.828125 " clip-rule="nonzero"/></clipPath><clipPath id="77c638eec8"><path d="M 24.238281 69.828125 L 174.238281 69.828125 L 174.238281 219.828125 L 24.238281 219.828125 Z M 24.238281 69.828125 " clip-rule="nonzero"/></clipPath><clipPath id="a1ae4c252b"><path d="M 155.519531 208.914062 L 219.269531 208.914062 L 219.269531 272.664062 L 155.519531 272.664062 Z M 155.519531 208.914062 " clip-rule="nonzero"/></clipPath></defs><rect x="-37.5" width="450" fill="#ffffff" y="-37.499999" height="449.999989" fill-opacity="1"/><rect x="-37.5" width="450" fill="#ffffff" y="-37.499999" height="449.999989" fill-opacity="1"/><rect x="-37.5" fill="url(#75946066e7)" width="450" y="-37.499999" height="449.999989"/><g clip-path="url(#d2e4fc57f0)"><path fill="#000000" d="M 289.824219 179.984375 L 261.699219 179.984375 L 275.761719 156.546875 Z M 275.761719 194.046875 C 262.640625 194.046875 261.746094 186.183594 261.699219 184.609375 L 257.011719 184.671875 L 252.324219 184.671875 C 252.324219 191.160156 257.222656 203.421875 275.761719 203.421875 C 294.300781 203.421875 299.199219 191.160156 299.199219 184.671875 L 289.824219 184.671875 C 289.824219 185.058594 289.664062 194.046875 275.761719 194.046875 Z M 350.761719 161.234375 L 350.761719 179.957031 C 350.667969 188.089844 346.238281 196.234375 336.703125 198.242188 L 336.703125 205.765625 C 336.703125 211.421875 332.957031 219.828125 322.640625 219.828125 L 228.886719 219.828125 C 223.234375 219.828125 214.824219 216.085938 214.824219 205.765625 L 214.824219 198.25 C 205.289062 196.238281 200.859375 188.105469 200.761719 180.015625 L 200.761719 161.234375 C 200.761719 150.605469 207.28125 144.835938 214.824219 143.101562 L 214.824219 130.765625 C 214.824219 125.113281 218.570312 116.703125 228.886719 116.703125 L 271.074219 116.703125 L 271.074219 97.09375 C 265.632812 95.152344 261.699219 89.996094 261.699219 83.890625 C 261.699219 76.140625 268.007812 69.828125 275.761719 69.828125 C 283.515625 69.828125 289.824219 76.140625 289.824219 83.890625 C 289.824219 89.996094 285.890625 95.152344 280.449219 97.09375 L 280.449219 116.703125 L 322.640625 116.703125 C 328.292969 116.703125 336.703125 120.449219 336.703125 130.765625 L 336.703125 143.101562 C 344.246094 144.835938 350.761719 150.605469 350.761719 161.234375 Z M 271.074219 83.890625 C 271.074219 86.476562 273.179688 88.578125 275.761719 88.578125 C 278.34375 88.578125 280.449219 86.476562 280.449219 83.890625 C 280.449219 81.308594 278.34375 79.203125 275.761719 79.203125 C 273.179688 79.203125 271.074219 81.308594 271.074219 83.890625 Z M 224.199219 142.421875 L 224.199219 149.515625 L 230.265625 149.515625 C 231.195312 147.214844 232.574219 145.097656 234.382812 143.289062 C 241.46875 136.203125 253.820312 136.203125 260.898438 143.289062 C 261.308594 143.699219 261.628906 144.183594 262 144.625 C 265.398438 141.871094 270.242188 140.140625 275.761719 140.140625 C 281.277344 140.140625 286.125 141.871094 289.527344 144.628906 C 289.898438 144.183594 290.21875 143.703125 290.628906 143.289062 C 294.167969 139.753906 298.878906 137.796875 303.886719 137.796875 C 308.890625 137.796875 313.601562 139.753906 317.140625 143.292969 C 318.953125 145.097656 320.328125 147.214844 321.261719 149.515625 L 327.328125 149.515625 L 327.328125 130.765625 C 327.328125 126.992188 324.75 126.136719 322.585938 126.078125 L 228.886719 126.078125 C 225.113281 126.078125 224.253906 128.65625 224.199219 130.824219 Z M 294.511719 156.546875 C 294.511719 159.050781 295.484375 161.40625 297.257812 163.175781 C 300.800781 166.71875 306.96875 166.71875 310.515625 163.175781 C 312.285156 161.40625 313.261719 159.050781 313.261719 156.546875 C 313.261719 154.046875 312.285156 151.691406 310.515625 149.921875 C 308.742188 148.148438 306.390625 147.171875 303.886719 147.171875 C 301.382812 147.171875 299.03125 148.148438 297.257812 149.921875 C 295.484375 151.691406 294.511719 154.046875 294.511719 156.546875 Z M 238.261719 156.546875 C 238.261719 159.050781 239.234375 161.40625 241.007812 163.175781 C 244.550781 166.71875 250.71875 166.71875 254.265625 163.175781 C 256.035156 161.40625 257.011719 159.050781 257.011719 156.546875 C 257.011719 154.046875 256.035156 151.691406 254.265625 149.921875 C 252.492188 148.148438 250.140625 147.171875 247.636719 147.171875 C 245.132812 147.171875 242.78125 148.148438 241.007812 149.921875 C 239.234375 151.691406 238.261719 154.046875 238.261719 156.546875 Z M 214.824219 188.460938 L 214.824219 152.820312 C 212.320312 153.957031 210.136719 156.351562 210.136719 161.234375 L 210.136719 179.957031 C 210.167969 182.605469 210.914062 186.671875 214.824219 188.460938 Z M 327.328125 198.734375 L 327.328125 158.890625 L 322.40625 158.890625 C 321.890625 163.007812 320.125 166.828125 317.140625 169.804688 C 313.601562 173.347656 308.890625 175.296875 303.886719 175.296875 C 298.878906 175.296875 294.167969 173.347656 290.628906 169.804688 C 287.085938 166.265625 285.136719 161.554688 285.136719 156.546875 C 285.136719 155.757812 285.265625 154.988281 285.367188 154.210938 L 285.136719 154.210938 C 285.136719 152.296875 281.484375 149.515625 275.761719 149.515625 C 270.039062 149.515625 266.386719 152.296875 266.386719 154.210938 L 266.15625 154.210938 C 266.253906 154.988281 266.386719 155.757812 266.386719 156.546875 C 266.386719 161.554688 264.429688 166.265625 260.890625 169.804688 C 257.351562 173.347656 252.640625 175.296875 247.636719 175.296875 C 242.628906 175.296875 237.917969 173.347656 234.378906 169.804688 C 231.402344 166.828125 229.632812 163.007812 229.117188 158.890625 L 224.199219 158.890625 L 224.199219 205.765625 C 224.199219 209.546875 226.777344 210.398438 228.941406 210.453125 L 322.644531 210.453125 C 326.421875 210.453125 327.277344 207.875 327.332031 205.710938 L 327.332031 198.734375 Z M 341.386719 161.234375 C 341.386719 156.351562 339.207031 153.960938 336.703125 152.820312 L 336.703125 188.460938 C 340.613281 186.664062 341.351562 182.59375 341.386719 179.90625 Z M 341.386719 161.234375 " fill-opacity="1" fill-rule="nonzero"/></g><g clip-path="url(#77c638eec8)"><path fill="#000000" d="M 89.863281 156.546875 C 89.863281 151.542969 87.910156 146.832031 84.371094 143.292969 C 77.289062 136.203125 64.9375 136.210938 57.859375 143.292969 C 54.320312 146.832031 52.363281 151.542969 52.363281 156.546875 C 52.363281 161.554688 54.320312 166.265625 57.859375 169.804688 C 61.398438 173.347656 66.109375 175.296875 71.113281 175.296875 C 76.121094 175.296875 80.832031 173.347656 84.371094 169.804688 C 87.910156 166.265625 89.863281 161.554688 89.863281 156.546875 Z M 77.742188 163.175781 C 74.199219 166.71875 68.03125 166.71875 64.484375 163.175781 C 62.714844 161.40625 61.738281 159.050781 61.738281 156.546875 C 61.738281 154.046875 62.714844 151.691406 64.484375 149.921875 C 66.257812 148.148438 68.609375 147.171875 71.113281 147.171875 C 73.617188 147.171875 75.96875 148.148438 77.742188 149.921875 C 79.515625 151.691406 80.488281 154.046875 80.488281 156.546875 C 80.488281 159.050781 79.515625 161.40625 77.742188 163.175781 Z M 85.175781 179.984375 L 99.238281 156.546875 L 113.300781 179.984375 Z M 127.363281 137.796875 C 122.359375 137.796875 117.648438 139.753906 114.109375 143.289062 C 110.5625 146.832031 108.613281 151.542969 108.613281 156.546875 C 108.613281 161.554688 110.5625 166.265625 114.109375 169.804688 C 117.648438 173.347656 122.359375 175.296875 127.363281 175.296875 C 132.371094 175.296875 137.082031 173.347656 140.621094 169.804688 C 144.164062 166.265625 146.113281 161.554688 146.113281 156.546875 C 146.113281 151.542969 144.164062 146.832031 140.621094 143.292969 C 137.082031 139.753906 132.371094 137.796875 127.363281 137.796875 Z M 133.992188 163.175781 C 130.449219 166.71875 124.28125 166.71875 120.734375 163.175781 C 118.964844 161.40625 117.988281 159.050781 117.988281 156.546875 C 117.988281 154.046875 118.964844 151.691406 120.734375 149.921875 C 122.507812 148.148438 124.859375 147.171875 127.363281 147.171875 C 129.867188 147.171875 132.21875 148.148438 133.992188 149.921875 C 135.765625 151.691406 136.738281 154.046875 136.738281 156.546875 C 136.738281 159.050781 135.765625 161.40625 133.992188 163.175781 Z M 160.179688 143.101562 L 160.179688 130.765625 C 160.179688 120.449219 151.773438 116.703125 146.117188 116.703125 L 103.925781 116.703125 L 103.925781 97.09375 C 109.367188 95.152344 113.300781 89.996094 113.300781 83.890625 C 113.300781 76.140625 106.992188 69.828125 99.238281 69.828125 C 91.484375 69.828125 85.175781 76.140625 85.175781 83.890625 C 85.175781 89.996094 89.109375 95.152344 94.550781 97.09375 L 94.550781 116.703125 L 52.363281 116.703125 C 42.046875 116.703125 38.300781 125.113281 38.300781 130.765625 L 38.300781 143.101562 C 30.757812 144.835938 24.238281 150.601562 24.238281 161.234375 L 24.238281 180.015625 C 24.332031 188.105469 28.761719 196.238281 38.300781 198.25 L 38.300781 205.765625 C 38.300781 216.085938 46.710938 219.828125 52.363281 219.828125 L 146.117188 219.828125 C 156.4375 219.828125 160.179688 211.421875 160.179688 205.765625 L 160.179688 198.25 C 169.714844 196.234375 174.144531 188.09375 174.238281 179.960938 L 174.238281 161.234375 C 174.238281 150.605469 167.722656 144.835938 160.179688 143.101562 Z M 99.238281 79.203125 C 101.820312 79.203125 103.925781 81.308594 103.925781 83.890625 C 103.925781 86.476562 101.820312 88.578125 99.238281 88.578125 C 96.65625 88.578125 94.550781 86.476562 94.550781 83.890625 C 94.550781 81.308594 96.65625 79.203125 99.238281 79.203125 Z M 33.613281 179.957031 L 33.613281 161.234375 C 33.613281 156.351562 35.792969 153.957031 38.300781 152.820312 L 38.300781 188.460938 C 34.390625 186.671875 33.648438 182.605469 33.613281 179.957031 Z M 150.804688 205.710938 C 150.75 207.875 149.898438 210.453125 146.117188 210.453125 L 52.414062 210.453125 C 50.253906 210.398438 47.675781 209.546875 47.675781 205.765625 L 47.675781 130.824219 C 47.726562 128.65625 48.585938 126.078125 52.363281 126.078125 L 146.066406 126.078125 C 148.234375 126.136719 150.8125 126.992188 150.8125 130.765625 L 150.8125 205.710938 Z M 164.863281 179.902344 C 164.832031 182.585938 164.089844 186.660156 160.179688 188.457031 L 160.179688 152.816406 C 162.683594 153.960938 164.863281 156.351562 164.863281 161.234375 Z M 122.675781 194.046875 C 122.675781 200.523438 112.179688 205.765625 99.238281 205.765625 C 86.296875 205.765625 75.800781 200.523438 75.800781 194.046875 C 75.800781 187.574219 86.296875 182.328125 99.238281 182.328125 C 112.179688 182.328125 122.675781 187.574219 122.675781 194.046875 Z M 122.675781 194.046875 " fill-opacity="1" fill-rule="nonzero"/></g><g clip-path="url(#a1ae4c252b)"><path fill="#000000" d="M 218.238281 272.65625 L 156.558594 272.65625 C 156 272.65625 155.546875 272.207031 155.546875 271.648438 L 155.546875 265.886719 C 155.546875 256.300781 163.347656 248.5 172.933594 248.5 L 201.863281 248.5 C 211.449219 248.5 219.25 256.300781 219.25 265.886719 L 219.25 271.648438 C 219.25 272.207031 218.796875 272.65625 218.238281 272.65625 Z M 187.398438 245.78125 C 177.234375 245.78125 168.964844 237.511719 168.964844 227.347656 C 168.964844 217.183594 177.234375 208.914062 187.398438 208.914062 C 197.5625 208.914062 205.832031 217.183594 205.832031 227.347656 C 205.832031 237.511719 197.5625 245.78125 187.398438 245.78125 Z M 187.398438 245.78125 " fill-opacity="1" fill-rule="nonzero"/></g></svg>